<?xml version="1.0" ?><svg enable-background="new 0 0 32 32" version="1.1" viewBox="0 0 32 32" xml:space="preserve" xmlns="http://www.w3.org/2000/svg" xmlns:xlink="http://www.w3.org/1999/xlink"><g id="Filled"><g><g><rect fill="#6FD4F7" height="23" width="30" x="1" y="4.5"/></g><g><g><path d="M30,5.5v21H2v-21H30 M32,3.5H0v25h32V3.5L32,3.5z"/></g></g></g><g><g><rect fill="#FFFFFF" height="16.287" width="22.688" x="4.656" y="7.857"/></g><g><g><path d="M26.344,8.857v14.287H5.656V8.857H26.344 M28.344,6.857H3.656v18.287h24.687V6.857L28.344,6.857z"/></g></g></g><g><rect height="2.846" width="8.797" x="15.217" y="21.478"/></g><g><path d="M11.495,18.419h-1.368l0.808-3.719c0.104-0.455,0.218-0.884,0.341-1.288    c-0.027,0.024-0.119,0.094-0.276,0.21c-0.157,0.117-0.55,0.371-1.178,0.763l-0.597-0.964l2.54-1.562h1.117L11.495,18.419z" fill="#6FD4F7"/><path d="M17.566,18.419h-4.316l0.192-0.956l2.141-1.901c0.538-0.476,0.91-0.856,1.115-1.142    c0.204-0.286,0.307-0.554,0.307-0.805c0-0.224-0.062-0.396-0.184-0.514c-0.123-0.118-0.287-0.177-0.493-0.177    c-0.198,0-0.4,0.05-0.608,0.15s-0.464,0.277-0.77,0.532l-0.655-0.911c0.396-0.335,0.772-0.573,1.131-0.715    c0.359-0.142,0.732-0.213,1.122-0.213c0.568,0,1.019,0.147,1.351,0.44s0.498,0.68,0.498,1.162c0,0.32-0.062,0.621-0.185,0.902    c-0.122,0.281-0.306,0.562-0.55,0.843c-0.243,0.281-0.642,0.647-1.195,1.099l-1.207,0.996v0.045h2.549L17.566,18.419z" fill="#6FD4F7"/><path d="M23.483,13.264c0,0.467-0.142,0.859-0.424,1.176c-0.283,0.317-0.674,0.519-1.173,0.605v0.018    c0.392,0.078,0.688,0.237,0.89,0.478c0.202,0.241,0.304,0.542,0.304,0.904c0,0.398-0.111,0.753-0.332,1.067    c-0.222,0.314-0.539,0.559-0.951,0.733c-0.413,0.175-0.902,0.263-1.468,0.263c-0.715,0-1.293-0.118-1.736-0.354v-1.198    c0.252,0.15,0.523,0.262,0.816,0.338c0.294,0.076,0.579,0.114,0.857,0.114c0.473,0,0.836-0.095,1.09-0.285    c0.255-0.189,0.382-0.453,0.382-0.791c0-0.514-0.386-0.771-1.157-0.771h-0.619l0.206-0.992h0.327c0.5,0,0.894-0.093,1.181-0.278    c0.287-0.186,0.431-0.443,0.431-0.772c0-0.2-0.064-0.356-0.193-0.467c-0.129-0.11-0.31-0.166-0.543-0.166    c-0.4,0-0.83,0.15-1.287,0.449l-0.57-0.915c0.371-0.242,0.719-0.412,1.043-0.509c0.325-0.097,0.693-0.146,1.106-0.146    c0.568,0,1.014,0.136,1.337,0.406S23.483,12.807,23.483,13.264z" fill="#6FD4F7"/></g></g></svg>